<svg xmlns="http://www.w3.org/2000/svg" viewBox="0 0 900 900" width="900" height="900" preserveAspectRatio="xMidYMid slice">
<defs>
  <linearGradient id="bg" x1="0" y1="0" x2="1" y2="1"><stop offset="0" stop-color="#040b1c"/><stop offset=".55" stop-color="#041a33"/><stop offset="1" stop-color="#06507a"/></linearGradient>
  <radialGradient id="halo" cx="0.62" cy="0.62" r="0.55"><stop offset="0" stop-color="#19c3ff" stop-opacity=".55"/><stop offset="1" stop-color="#19c3ff" stop-opacity="0"/></radialGradient>
  <linearGradient id="shape" x1="0" y1="0" x2="1" y2="1"><stop offset="0" stop-color="#8ee7ff"/><stop offset="1" stop-color="#19c3ff"/></linearGradient>
  <linearGradient id="fade" x1="0" y1="0" x2="0" y2="1"><stop offset="0" stop-color="#fff" stop-opacity="0"/><stop offset=".35" stop-color="#fff" stop-opacity="1"/></linearGradient>
  <mask id="fadeUp"><rect width="900" height="900" fill="url(#fade)"/></mask>
  <filter id="glow" x="-30%" y="-30%" width="160%" height="160%"><feGaussianBlur stdDeviation="6" result="b"/><feMerge><feMergeNode in="b"/><feMergeNode in="SourceGraphic"/></feMerge></filter>
</defs>
<rect width="900" height="900" fill="url(#bg)"/>
<rect width="900" height="900" fill="url(#halo)"/>
<g stroke="#6aa3ff" stroke-width="1.2" opacity=".28" mask="url(#fadeUp)"><line x1="558" y1="648" x2="-1206.0000000000002" y2="900"/><line x1="558" y1="648" x2="-1080.0000000000002" y2="900"/><line x1="558" y1="648" x2="-954.0000000000002" y2="900"/><line x1="558" y1="648" x2="-828.0000000000002" y2="900"/><line x1="558" y1="648" x2="-702.0000000000002" y2="900"/><line x1="558" y1="648" x2="-576" y2="900"/><line x1="558" y1="648" x2="-450.0000000000001" y2="900"/><line x1="558" y1="648" x2="-324.0000000000001" y2="900"/><line x1="558" y1="648" x2="-198.0000000000001" y2="900"/><line x1="558" y1="648" x2="-72.00000000000011" y2="900"/><line x1="558" y1="648" x2="53.99999999999994" y2="900"/><line x1="558" y1="648" x2="179.99999999999994" y2="900"/><line x1="558" y1="648" x2="306" y2="900"/><line x1="558" y1="648" x2="432" y2="900"/><line x1="558" y1="648" x2="558" y2="900"/><line x1="558" y1="648" x2="684" y2="900"/><line x1="558" y1="648" x2="810" y2="900"/><line x1="558" y1="648" x2="936" y2="900"/><line x1="558" y1="648" x2="1062" y2="900"/><line x1="558" y1="648" x2="1188" y2="900"/><line x1="558" y1="648" x2="1314" y2="900"/><line x1="558" y1="648" x2="1440" y2="900"/><line x1="558" y1="648" x2="1566" y2="900"/><line x1="558" y1="648" x2="1692" y2="900"/><line x1="558" y1="648" x2="1818.0000000000002" y2="900"/><line x1="558" y1="648" x2="1944.0000000000002" y2="900"/><line x1="558" y1="648" x2="2070" y2="900"/><line x1="558" y1="648" x2="2196" y2="900"/><line x1="558" y1="648" x2="2322" y2="900"/><line x1="0" y1="650.5" x2="900" y2="650.5"/><line x1="0" y1="658.7" x2="900" y2="658.7"/><line x1="0" y1="673.1" x2="900" y2="673.1"/><line x1="0" y1="693.9" x2="900" y2="693.9"/><line x1="0" y1="721.3" x2="900" y2="721.3"/><line x1="0" y1="755.5" x2="900" y2="755.5"/><line x1="0" y1="796.7" x2="900" y2="796.7"/><line x1="0" y1="844.8" x2="900" y2="844.8"/><line x1="0" y1="900.0" x2="900" y2="900.0"/></g>
<line x1="285" y1="896" x2="-142" y2="1050" stroke="#8fb8ff" stroke-width="2.5" stroke-linecap="round" opacity="0.29"/><line x1="406" y1="735" x2="104" y2="844" stroke="#8fb8ff" stroke-width="3.1" stroke-linecap="round" opacity="0.24"/><line x1="625" y1="691" x2="330" y2="797" stroke="#8fb8ff" stroke-width="2.3" stroke-linecap="round" opacity="0.30"/><line x1="518" y1="442" x2="166" y2="568" stroke="#8fb8ff" stroke-width="1.9" stroke-linecap="round" opacity="0.26"/><line x1="313" y1="831" x2="-48" y2="961" stroke="#8fb8ff" stroke-width="2.4" stroke-linecap="round" opacity="0.35"/><line x1="106" y1="753" x2="-295" y2="897" stroke="#8fb8ff" stroke-width="2.7" stroke-linecap="round" opacity="0.25"/><line x1="260" y1="200" x2="9" y2="290" stroke="#8fb8ff" stroke-width="1.3" stroke-linecap="round" opacity="0.23"/><line x1="229" y1="58" x2="32" y2="129" stroke="#8fb8ff" stroke-width="1.9" stroke-linecap="round" opacity="0.12"/><line x1="36" y1="340" x2="-480" y2="526" stroke="#8fb8ff" stroke-width="3.2" stroke-linecap="round" opacity="0.18"/><line x1="504" y1="519" x2="216" y2="623" stroke="#8fb8ff" stroke-width="1.4" stroke-linecap="round" opacity="0.10"/>
<circle cx="558" cy="385" r="2.1" fill="#bcd6ff" opacity="0.39"/><circle cx="39" cy="354" r="1.2" fill="#bcd6ff" opacity="0.18"/><circle cx="759" cy="589" r="1.6" fill="#bcd6ff" opacity="0.17"/><circle cx="246" cy="523" r="1.0" fill="#bcd6ff" opacity="0.53"/><circle cx="75" cy="488" r="2.2" fill="#bcd6ff" opacity="0.21"/><circle cx="489" cy="587" r="0.8" fill="#bcd6ff" opacity="0.15"/><circle cx="803" cy="386" r="1.8" fill="#bcd6ff" opacity="0.47"/><circle cx="698" cy="59" r="1.0" fill="#bcd6ff" opacity="0.61"/><circle cx="199" cy="717" r="1.5" fill="#bcd6ff" opacity="0.55"/><circle cx="663" cy="758" r="2.7" fill="#bcd6ff" opacity="0.41"/><circle cx="330" cy="735" r="2.0" fill="#bcd6ff" opacity="0.54"/><circle cx="455" cy="502" r="1.0" fill="#bcd6ff" opacity="0.16"/><circle cx="37" cy="68" r="1.2" fill="#bcd6ff" opacity="0.29"/><circle cx="424" cy="195" r="2.4" fill="#bcd6ff" opacity="0.40"/><circle cx="184" cy="272" r="1.7" fill="#bcd6ff" opacity="0.49"/><circle cx="9" cy="114" r="1.7" fill="#bcd6ff" opacity="0.31"/><circle cx="895" cy="578" r="1.8" fill="#bcd6ff" opacity="0.21"/><circle cx="265" cy="649" r="2.4" fill="#bcd6ff" opacity="0.41"/><circle cx="790" cy="715" r="2.1" fill="#bcd6ff" opacity="0.31"/><circle cx="103" cy="739" r="2.8" fill="#bcd6ff" opacity="0.39"/><circle cx="844" cy="900" r="1.5" fill="#bcd6ff" opacity="0.16"/><circle cx="117" cy="661" r="2.3" fill="#bcd6ff" opacity="0.55"/><circle cx="4" cy="81" r="2.3" fill="#bcd6ff" opacity="0.50"/><circle cx="109" cy="607" r="1.1" fill="#bcd6ff" opacity="0.41"/><circle cx="216" cy="640" r="2.8" fill="#bcd6ff" opacity="0.27"/><circle cx="742" cy="808" r="1.7" fill="#bcd6ff" opacity="0.25"/><circle cx="231" cy="805" r="1.3" fill="#bcd6ff" opacity="0.18"/><circle cx="407" cy="105" r="1.0" fill="#bcd6ff" opacity="0.24"/><circle cx="145" cy="899" r="1.7" fill="#bcd6ff" opacity="0.41"/><circle cx="287" cy="335" r="1.5" fill="#bcd6ff" opacity="0.55"/><circle cx="303" cy="100" r="1.1" fill="#bcd6ff" opacity="0.29"/><circle cx="287" cy="243" r="2.6" fill="#bcd6ff" opacity="0.38"/><circle cx="133" cy="886" r="1.7" fill="#bcd6ff" opacity="0.44"/><circle cx="348" cy="643" r="2.1" fill="#bcd6ff" opacity="0.57"/><circle cx="558" cy="873" r="1.5" fill="#bcd6ff" opacity="0.42"/><circle cx="97" cy="139" r="2.2" fill="#bcd6ff" opacity="0.58"/>
<g opacity=".9"><polygon points="774.5,719.0 558.0,844.0 341.5,719.0 341.5,469.0 558.0,344.0 774.5,469.0" fill="none" stroke="#8ee7ff" stroke-width="1.5" opacity="0.28"/><polygon points="843.8,759.0 558.0,924.0 272.2,759.0 272.2,429.0 558.0,264.0 843.8,429.0" fill="none" stroke="#8ee7ff" stroke-width="1.5" opacity="0.16"/><polygon points="913.1,799.0 558.0,1004.0 202.9,799.0 202.9,389.0 558.0,184.0 913.1,389.0" fill="none" stroke="#8ee7ff" stroke-width="1.5" opacity="0.1"/></g>

  <g transform="translate(321.1 421.5) scale(1.15)" filter="url(#glow)">
    <path d="M60 250 L60 150 Q60 120 95 118 L150 112 Q190 150 250 160 L330 178 Q352 184 352 206 L352 250 Z M60 250 L352 250 L352 270 Q352 278 340 278 L72 278 Q60 278 60 270 Z" fill="url(#shape)" fill-opacity=".16" stroke="#8ee7ff" stroke-width="2.61" stroke-linejoin="round"/>
    <path d="M60 250 L60 150 Q60 120 95 118 L150 112 Q190 150 250 160 L330 178 Q352 184 352 206 L352 250 Z M60 250 L352 250 L352 270 Q352 278 340 278 L72 278 Q60 278 60 270 Z" fill="none" stroke="#ffffff" stroke-width="0.87" stroke-linejoin="round" transform="translate(7.0 7.0)" opacity=".6"/>
  </g><g stroke="#ffffff" stroke-width="2.3" opacity=".6" fill="none"><path d="M466 582.5 l80.5 -29.9 M493.6 619.3 l114.99999999999999 -41.4"/></g>
<rect y="896" width="900" height="4" fill="url(#shape)" opacity=".85"/>
</svg>