<svg xmlns="http://www.w3.org/2000/svg" viewBox="0 0 1920 640" width="1920" height="640" preserveAspectRatio="xMidYMid slice">
<defs>
  <linearGradient id="bg" x1="0" y1="0" x2="1" y2="1"><stop offset="0" stop-color="#040b1c"/><stop offset=".55" stop-color="#14102a"/><stop offset="1" stop-color="#3d1f6e"/></linearGradient>
  <radialGradient id="halo" cx="0.74" cy="0.48" r="0.42"><stop offset="0" stop-color="#ff8a1f" stop-opacity=".55"/><stop offset="1" stop-color="#ff8a1f" stop-opacity="0"/></radialGradient>
  <linearGradient id="shape" x1="0" y1="0" x2="1" y2="1"><stop offset="0" stop-color="#ffc27a"/><stop offset="1" stop-color="#ff8a1f"/></linearGradient>
  <linearGradient id="fade" x1="0" y1="0" x2="0" y2="1"><stop offset="0" stop-color="#fff" stop-opacity="0"/><stop offset=".35" stop-color="#fff" stop-opacity="1"/></linearGradient>
  <mask id="fadeUp"><rect width="1920" height="640" fill="url(#fade)"/></mask>
  <filter id="glow" x="-30%" y="-30%" width="160%" height="160%"><feGaussianBlur stdDeviation="8" result="b"/><feMerge><feMergeNode in="b"/><feMergeNode in="SourceGraphic"/></feMerge></filter>
</defs>
<rect width="1920" height="640" fill="url(#bg)"/>
<rect width="1920" height="640" fill="url(#halo)"/>
<g stroke="#6aa3ff" stroke-width="1.2" opacity=".28" mask="url(#fadeUp)"><line x1="1190.4" y1="422.40000000000003" x2="-2572.8" y2="640"/><line x1="1190.4" y1="422.40000000000003" x2="-2304.0000000000005" y2="640"/><line x1="1190.4" y1="422.40000000000003" x2="-2035.2000000000003" y2="640"/><line x1="1190.4" y1="422.40000000000003" x2="-1766.4" y2="640"/><line x1="1190.4" y1="422.40000000000003" x2="-1497.6000000000004" y2="640"/><line x1="1190.4" y1="422.40000000000003" x2="-1228.8000000000002" y2="640"/><line x1="1190.4" y1="422.40000000000003" x2="-960" y2="640"/><line x1="1190.4" y1="422.40000000000003" x2="-691.2" y2="640"/><line x1="1190.4" y1="422.40000000000003" x2="-422.4000000000001" y2="640"/><line x1="1190.4" y1="422.40000000000003" x2="-153.60000000000014" y2="640"/><line x1="1190.4" y1="422.40000000000003" x2="115.20000000000005" y2="640"/><line x1="1190.4" y1="422.40000000000003" x2="384" y2="640"/><line x1="1190.4" y1="422.40000000000003" x2="652.8000000000001" y2="640"/><line x1="1190.4" y1="422.40000000000003" x2="921.6000000000001" y2="640"/><line x1="1190.4" y1="422.40000000000003" x2="1190.4" y2="640"/><line x1="1190.4" y1="422.40000000000003" x2="1459.2" y2="640"/><line x1="1190.4" y1="422.40000000000003" x2="1728" y2="640"/><line x1="1190.4" y1="422.40000000000003" x2="1996.8000000000002" y2="640"/><line x1="1190.4" y1="422.40000000000003" x2="2265.6000000000004" y2="640"/><line x1="1190.4" y1="422.40000000000003" x2="2534.4000000000005" y2="640"/><line x1="1190.4" y1="422.40000000000003" x2="2803.2000000000003" y2="640"/><line x1="1190.4" y1="422.40000000000003" x2="3072" y2="640"/><line x1="1190.4" y1="422.40000000000003" x2="3340.8" y2="640"/><line x1="1190.4" y1="422.40000000000003" x2="3609.6000000000004" y2="640"/><line x1="1190.4" y1="422.40000000000003" x2="3878.4000000000005" y2="640"/><line x1="1190.4" y1="422.40000000000003" x2="4147.200000000001" y2="640"/><line x1="1190.4" y1="422.40000000000003" x2="4416" y2="640"/><line x1="1190.4" y1="422.40000000000003" x2="4684.800000000001" y2="640"/><line x1="1190.4" y1="422.40000000000003" x2="4953.6" y2="640"/><line x1="0" y1="424.6" x2="1920" y2="424.6"/><line x1="0" y1="431.6" x2="1920" y2="431.6"/><line x1="0" y1="444.1" x2="1920" y2="444.1"/><line x1="0" y1="462.0" x2="1920" y2="462.0"/><line x1="0" y1="485.7" x2="1920" y2="485.7"/><line x1="0" y1="515.3" x2="1920" y2="515.3"/><line x1="0" y1="550.8" x2="1920" y2="550.8"/><line x1="0" y1="592.3" x2="1920" y2="592.3"/><line x1="0" y1="640.0" x2="1920" y2="640.0"/></g>
<line x1="1625" y1="185" x2="1245" y2="322" stroke="#8fb8ff" stroke-width="1.8" stroke-linecap="round" opacity="0.14"/><line x1="1391" y1="66" x2="1165" y2="147" stroke="#8fb8ff" stroke-width="2.6" stroke-linecap="round" opacity="0.22"/><line x1="1620" y1="423" x2="1130" y2="599" stroke="#8fb8ff" stroke-width="3.2" stroke-linecap="round" opacity="0.30"/><line x1="122" y1="2" x2="-264" y2="141" stroke="#8fb8ff" stroke-width="1.6" stroke-linecap="round" opacity="0.15"/><line x1="641" y1="449" x2="370" y2="547" stroke="#8fb8ff" stroke-width="2.9" stroke-linecap="round" opacity="0.28"/><line x1="2000" y1="385" x2="1509" y2="562" stroke="#8fb8ff" stroke-width="2.2" stroke-linecap="round" opacity="0.35"/><line x1="1775" y1="272" x2="1419" y2="400" stroke="#8fb8ff" stroke-width="2.5" stroke-linecap="round" opacity="0.23"/><line x1="692" y1="3" x2="348" y2="127" stroke="#8fb8ff" stroke-width="2.6" stroke-linecap="round" opacity="0.13"/><line x1="519" y1="235" x2="375" y2="286" stroke="#8fb8ff" stroke-width="1.2" stroke-linecap="round" opacity="0.26"/><line x1="1575" y1="259" x2="1278" y2="366" stroke="#8fb8ff" stroke-width="1.7" stroke-linecap="round" opacity="0.35"/><line x1="360" y1="442" x2="170" y2="510" stroke="#8fb8ff" stroke-width="1.4" stroke-linecap="round" opacity="0.10"/><line x1="1626" y1="180" x2="1472" y2="235" stroke="#8fb8ff" stroke-width="3.0" stroke-linecap="round" opacity="0.28"/><line x1="2026" y1="192" x2="1800" y2="273" stroke="#8fb8ff" stroke-width="2.1" stroke-linecap="round" opacity="0.14"/><line x1="972" y1="173" x2="652" y2="288" stroke="#8fb8ff" stroke-width="3.3" stroke-linecap="round" opacity="0.10"/><line x1="334" y1="523" x2="-130" y2="691" stroke="#8fb8ff" stroke-width="2.6" stroke-linecap="round" opacity="0.33"/><line x1="1304" y1="485" x2="917" y2="624" stroke="#8fb8ff" stroke-width="3.2" stroke-linecap="round" opacity="0.32"/><line x1="47" y1="122" x2="-238" y2="225" stroke="#8fb8ff" stroke-width="2.6" stroke-linecap="round" opacity="0.28"/><line x1="29" y1="441" x2="-324" y2="568" stroke="#8fb8ff" stroke-width="3.1" stroke-linecap="round" opacity="0.24"/>
<circle cx="285" cy="588" r="2.6" fill="#bcd6ff" opacity="0.17"/><circle cx="1575" cy="519" r="1.2" fill="#bcd6ff" opacity="0.59"/><circle cx="47" cy="111" r="2.8" fill="#bcd6ff" opacity="0.40"/><circle cx="1600" cy="153" r="1.8" fill="#bcd6ff" opacity="0.33"/><circle cx="1522" cy="20" r="1.4" fill="#bcd6ff" opacity="0.27"/><circle cx="388" cy="617" r="1.8" fill="#bcd6ff" opacity="0.37"/><circle cx="1610" cy="202" r="1.3" fill="#bcd6ff" opacity="0.14"/><circle cx="474" cy="21" r="2.6" fill="#bcd6ff" opacity="0.25"/><circle cx="799" cy="83" r="2.6" fill="#bcd6ff" opacity="0.14"/><circle cx="627" cy="443" r="0.9" fill="#bcd6ff" opacity="0.35"/><circle cx="1311" cy="358" r="2.7" fill="#bcd6ff" opacity="0.30"/><circle cx="1406" cy="640" r="0.9" fill="#bcd6ff" opacity="0.24"/><circle cx="197" cy="103" r="1.4" fill="#bcd6ff" opacity="0.39"/><circle cx="605" cy="417" r="2.1" fill="#bcd6ff" opacity="0.29"/><circle cx="502" cy="263" r="2.5" fill="#bcd6ff" opacity="0.47"/><circle cx="438" cy="313" r="1.0" fill="#bcd6ff" opacity="0.18"/><circle cx="446" cy="126" r="2.7" fill="#bcd6ff" opacity="0.17"/><circle cx="890" cy="126" r="2.4" fill="#bcd6ff" opacity="0.36"/><circle cx="969" cy="638" r="1.5" fill="#bcd6ff" opacity="0.60"/><circle cx="1618" cy="472" r="1.0" fill="#bcd6ff" opacity="0.18"/><circle cx="1040" cy="455" r="1.9" fill="#bcd6ff" opacity="0.22"/><circle cx="1298" cy="232" r="2.6" fill="#bcd6ff" opacity="0.47"/><circle cx="20" cy="138" r="1.3" fill="#bcd6ff" opacity="0.47"/><circle cx="125" cy="289" r="2.5" fill="#bcd6ff" opacity="0.33"/><circle cx="1804" cy="299" r="2.3" fill="#bcd6ff" opacity="0.19"/><circle cx="1424" cy="345" r="2.3" fill="#bcd6ff" opacity="0.25"/><circle cx="1128" cy="227" r="1.3" fill="#bcd6ff" opacity="0.18"/><circle cx="1720" cy="353" r="2.2" fill="#bcd6ff" opacity="0.56"/><circle cx="1919" cy="600" r="2.4" fill="#bcd6ff" opacity="0.19"/><circle cx="1210" cy="278" r="1.1" fill="#bcd6ff" opacity="0.31"/><circle cx="501" cy="398" r="1.2" fill="#bcd6ff" opacity="0.56"/><circle cx="15" cy="423" r="1.5" fill="#bcd6ff" opacity="0.49"/><circle cx="1691" cy="523" r="2.5" fill="#bcd6ff" opacity="0.48"/><circle cx="1508" cy="89" r="2.5" fill="#bcd6ff" opacity="0.21"/><circle cx="1548" cy="392" r="1.1" fill="#bcd6ff" opacity="0.19"/><circle cx="1695" cy="333" r="1.3" fill="#bcd6ff" opacity="0.35"/><circle cx="1823" cy="33" r="2.5" fill="#bcd6ff" opacity="0.16"/><circle cx="1764" cy="463" r="0.8" fill="#bcd6ff" opacity="0.47"/><circle cx="710" cy="294" r="0.8" fill="#bcd6ff" opacity="0.36"/><circle cx="1340" cy="189" r="2.5" fill="#bcd6ff" opacity="0.41"/><circle cx="1655" cy="45" r="1.7" fill="#bcd6ff" opacity="0.14"/><circle cx="1873" cy="104" r="2.2" fill="#bcd6ff" opacity="0.44"/><circle cx="856" cy="48" r="1.3" fill="#bcd6ff" opacity="0.33"/><circle cx="1249" cy="468" r="1.6" fill="#bcd6ff" opacity="0.61"/><circle cx="1410" cy="345" r="1.2" fill="#bcd6ff" opacity="0.16"/><circle cx="714" cy="340" r="0.9" fill="#bcd6ff" opacity="0.57"/><circle cx="1830" cy="631" r="1.4" fill="#bcd6ff" opacity="0.28"/><circle cx="1810" cy="357" r="2.2" fill="#bcd6ff" opacity="0.25"/><circle cx="366" cy="247" r="1.6" fill="#bcd6ff" opacity="0.14"/><circle cx="763" cy="240" r="1.1" fill="#bcd6ff" opacity="0.56"/><circle cx="1279" cy="5" r="2.2" fill="#bcd6ff" opacity="0.53"/><circle cx="1915" cy="335" r="1.3" fill="#bcd6ff" opacity="0.22"/><circle cx="186" cy="403" r="2.4" fill="#bcd6ff" opacity="0.14"/><circle cx="35" cy="325" r="1.2" fill="#bcd6ff" opacity="0.38"/><circle cx="972" cy="185" r="1.8" fill="#bcd6ff" opacity="0.29"/><circle cx="658" cy="286" r="1.8" fill="#bcd6ff" opacity="0.44"/><circle cx="1816" cy="196" r="1.6" fill="#bcd6ff" opacity="0.48"/><circle cx="370" cy="417" r="2.5" fill="#bcd6ff" opacity="0.18"/><circle cx="1030" cy="384" r="1.5" fill="#bcd6ff" opacity="0.18"/><circle cx="349" cy="146" r="1.9" fill="#bcd6ff" opacity="0.28"/><circle cx="376" cy="10" r="1.4" fill="#bcd6ff" opacity="0.29"/><circle cx="2" cy="317" r="2.5" fill="#bcd6ff" opacity="0.52"/><circle cx="1624" cy="269" r="1.4" fill="#bcd6ff" opacity="0.13"/><circle cx="292" cy="455" r="1.8" fill="#bcd6ff" opacity="0.15"/><circle cx="844" cy="523" r="1.0" fill="#bcd6ff" opacity="0.38"/><circle cx="168" cy="363" r="1.6" fill="#bcd6ff" opacity="0.59"/><circle cx="1462" cy="156" r="1.6" fill="#bcd6ff" opacity="0.53"/><circle cx="1130" cy="195" r="1.3" fill="#bcd6ff" opacity="0.48"/><circle cx="1354" cy="310" r="2.2" fill="#bcd6ff" opacity="0.33"/><circle cx="1398" cy="552" r="2.4" fill="#bcd6ff" opacity="0.23"/>
<g opacity=".9"><polygon points="1661.4,470.0 1401.6,620.0 1141.8,470.0 1141.8,170.0 1401.6,20.0 1661.4,170.0" fill="none" stroke="#ffc27a" stroke-width="1.5" opacity="0.28"/><polygon points="1748.0,520.0 1401.6,720.0 1055.2,520.0 1055.2,120.0 1401.6,-80.0 1748.0,120.0" fill="none" stroke="#ffc27a" stroke-width="1.5" opacity="0.16"/><polygon points="1834.6,570.0 1401.6,820.0 968.6,570.0 968.6,70.0 1401.6,-180.0 1834.6,70.0" fill="none" stroke="#ffc27a" stroke-width="1.5" opacity="0.1"/></g>
<g filter="url(#glow)"><circle cx="1401.6" cy="320" r="237.5" fill="url(#shape)" fill-opacity=".16" stroke="#ffc27a" stroke-width="3"/>
      <g fill="none" stroke="#ffffff" stroke-width="2" opacity=".75"><path d="M1164.1 320 Q1401.6 207.5 1639.1 320"/><path d="M1164.1 320 Q1401.6 432.5 1639.1 320"/><path d="M1401.6 82.5 Q1276.6 320 1401.6 557.5"/><path d="M1401.6 82.5 Q1526.6 320 1401.6 557.5"/></g></g>
<rect y="636" width="1920" height="4" fill="url(#shape)" opacity=".85"/>
</svg>